<svg width="24" height="24" viewBox="0 0 24 24" fill="none" xmlns="http://www.w3.org/2000/svg">
<path fill-rule="evenodd" clip-rule="evenodd" d="M12.3859 5.32266L11.8129 4.65292C9.50692 2.34694 5.82947 2.50408 3.5235 4.81006C1.21753 7.11603 1.66132 11.5742 3.96729 13.8802C4.90319 14.8161 6.30476 16.1119 8.17199 17.7677L9.74287 19.1497L11.5072 20.6812C11.993 21.1005 12.7108 21.1069 13.204 20.6964L14.6333 19.498C17.1364 17.3826 18.9938 15.7164 20.2056 14.4995L20.5201 14.1787L20.8026 13.8802C22.9502 11.5643 23.5021 7.0624 21.2497 4.81006L21.0865 4.65292C18.7706 2.50533 15.2784 2.40057 13.026 4.65292L12.3859 5.32266ZM4.45042 5.73802C6.27385 3.91459 9.09479 3.8291 10.8502 5.54734L12.3312 7.27824L13.9737 5.55963C15.6584 3.87538 18.3435 3.89973 20.1934 5.61519L20.3386 5.75532C21.9302 7.34725 21.6594 11.0255 19.8395 12.9881L19.5661 13.2769L19.2628 13.5861C18.2582 14.5943 16.7694 15.945 14.8064 17.6272L13.7854 18.4959L12.3637 19.6879L10.6021 18.1588L9.34132 17.0513C7.5648 15.4812 6.19432 14.2254 5.23477 13.2887L4.89421 12.9525C2.99457 11.0528 2.75698 7.43146 4.45042 5.73802Z" fill="white"/>
<path d="M11.8129 4.65292L12.0029 4.49038L11.9965 4.48301L11.9897 4.47614L11.8129 4.65292ZM12.3859 5.32266L12.196 5.48519L12.3757 5.69522L12.5667 5.49539L12.3859 5.32266ZM3.5235 4.81006L3.34672 4.63328L3.5235 4.81006ZM3.96729 13.8802L4.14407 13.7034L3.96729 13.8802ZM8.17199 17.7677L8.00612 17.9548L8.00686 17.9554L8.17199 17.7677ZM9.74287 19.1497L9.57774 19.3374L9.57899 19.3385L9.74287 19.1497ZM11.5072 20.6812L11.3434 20.87L11.3439 20.8704L11.5072 20.6812ZM13.204 20.6964L13.364 20.8885L13.3647 20.8879L13.204 20.6964ZM14.6333 19.498L14.794 19.6896L14.7947 19.6889L14.6333 19.498ZM20.2056 14.4995L20.3828 14.6759L20.3841 14.6745L20.2056 14.4995ZM20.5201 14.1787L20.6986 14.3537L20.7017 14.3505L20.5201 14.1787ZM20.8026 13.8802L20.9842 14.0521L20.9859 14.0502L20.8026 13.8802ZM21.2497 4.81006L21.4265 4.63325L21.4231 4.62998L21.2497 4.81006ZM21.0865 4.65292L21.26 4.47281L21.2565 4.4696L21.0865 4.65292ZM13.026 4.65292L12.8492 4.47609L12.8453 4.48019L13.026 4.65292ZM10.8502 5.54734L11.0402 5.38481L11.033 5.37641L11.0251 5.36868L10.8502 5.54734ZM4.45042 5.73802L4.62719 5.9148L4.45042 5.73802ZM12.3312 7.27824L12.1413 7.44077L12.321 7.6508L12.512 7.45097L12.3312 7.27824ZM13.9737 5.55963L13.7969 5.38278L13.793 5.3869L13.9737 5.55963ZM20.1934 5.61519L20.367 5.43528L20.3634 5.43187L20.1934 5.61519ZM20.3386 5.75532L20.5154 5.57853L20.5122 5.57545L20.3386 5.75532ZM19.8395 12.9881L20.021 13.16L20.0228 13.1581L19.8395 12.9881ZM19.5661 13.2769L19.7446 13.452L19.7476 13.4488L19.5661 13.2769ZM19.2628 13.5861L19.4399 13.7626L19.4413 13.7612L19.2628 13.5861ZM14.8064 17.6272L14.9684 17.8176L14.9691 17.8171L14.8064 17.6272ZM13.7854 18.4959L13.946 18.6875L13.9474 18.6863L13.7854 18.4959ZM12.3637 19.6879L12.1998 19.8767L12.3608 20.0165L12.5243 19.8795L12.3637 19.6879ZM10.6021 18.1588L10.4371 18.3467L10.4382 18.3476L10.6021 18.1588ZM9.34132 17.0513L9.17576 17.2387L9.17633 17.2392L9.34132 17.0513ZM5.23477 13.2887L5.05911 13.4666L5.06014 13.4676L5.23477 13.2887ZM4.89421 12.9525L4.71743 13.1292L4.71856 13.1304L4.89421 12.9525ZM11.6229 4.81545L12.196 5.48519L12.5759 5.16012L12.0029 4.49038L11.6229 4.81545ZM3.70028 4.98683C5.91749 2.76962 9.43641 2.62999 11.6361 4.82969L11.9897 4.47614C9.57743 2.0639 5.74146 2.23854 3.34672 4.63328L3.70028 4.98683ZM4.14407 13.7034C3.03995 12.5993 2.37295 10.9683 2.26538 9.32877C2.1578 7.68907 2.61112 6.07599 3.70028 4.98683L3.34672 4.63328C2.12991 5.85009 1.65214 7.6191 1.76645 9.3615C1.88078 11.104 2.58866 12.8551 3.79052 14.057L4.14407 13.7034ZM8.33786 17.5807C6.47171 15.9259 5.0746 14.634 4.14407 13.7034L3.79052 14.057C4.73178 14.9983 6.1378 16.298 8.00613 17.9548L8.33786 17.5807ZM9.908 18.962L8.33712 17.58L8.00686 17.9554L9.57774 19.3374L9.908 18.962ZM11.6711 20.4924L9.90675 18.9609L9.57899 19.3385L11.3434 20.87L11.6711 20.4924ZM13.0441 20.5042C12.6448 20.8365 12.0638 20.8313 11.6706 20.4919L11.3439 20.8704C11.9222 21.3696 12.7768 21.3772 13.364 20.8885L13.0441 20.5042ZM14.4727 19.3064L13.0434 20.5048L13.3647 20.8879L14.794 19.6896L14.4727 19.3064ZM20.0285 14.3231C18.8243 15.5323 16.9735 17.193 14.472 19.307L14.7947 19.6889C17.2992 17.5723 19.1632 15.9006 20.3828 14.6759L20.0285 14.3231ZM20.3416 14.0037L20.0271 14.3244L20.3841 14.6745L20.6986 14.3537L20.3416 14.0037ZM20.621 13.7084L20.3385 14.0069L20.7017 14.3505L20.9841 14.052L20.621 13.7084ZM21.0729 4.98683C22.1319 6.04579 22.5482 7.65318 22.4268 9.30294C22.3054 10.9517 21.6489 12.5999 20.6193 13.7102L20.9859 14.0502C22.1038 12.8446 22.797 11.0839 22.9254 9.33964C23.0538 7.59639 22.6199 5.82666 21.4265 4.63328L21.0729 4.98683ZM20.9131 4.83299L21.0763 4.99013L21.4231 4.62998L21.26 4.47284L20.9131 4.83299ZM13.2028 4.82969C15.3511 2.68139 18.6896 2.77112 20.9166 4.83623L21.2565 4.4696C18.8517 2.23954 15.2056 2.11975 12.8492 4.47614L13.2028 4.82969ZM12.5667 5.49539L13.2068 4.82564L12.8453 4.48019L12.2052 5.14993L12.5667 5.49539ZM11.0251 5.36868C9.1636 3.54663 6.18571 3.64917 4.27364 5.56124L4.62719 5.9148C6.36199 4.18 9.02598 4.11157 10.6753 5.726L11.0251 5.36868ZM12.5212 7.11571L11.0402 5.38481L10.6602 5.70987L12.1413 7.44077L12.5212 7.11571ZM13.793 5.3869L12.1505 7.10551L12.512 7.45097L14.1544 5.73236L13.793 5.3869ZM20.3634 5.43187C18.4245 3.63389 15.5857 3.59462 13.797 5.38283L14.1505 5.73643C15.7312 4.15614 18.2625 4.16556 20.0234 5.7985L20.3634 5.43187ZM20.5122 5.57545L20.367 5.43532L20.0198 5.79506L20.1649 5.93519L20.5122 5.57545ZM20.0228 13.1581C20.9786 12.1273 21.5183 10.6596 21.6177 9.25031C21.7168 7.84641 21.3815 6.44485 20.5153 5.57856L20.1618 5.93208C20.8873 6.65772 21.2124 7.89126 21.119 9.21512C21.0259 10.5336 20.5202 11.8863 19.6562 12.8181L20.0228 13.1581ZM19.7476 13.4488L20.021 13.16L19.6579 12.8162L19.3845 13.105L19.7476 13.4488ZM19.4413 13.7612L19.7446 13.4519L19.3876 13.1018L19.0843 13.411L19.4413 13.7612ZM14.9691 17.8171C16.9338 16.1334 18.4284 14.7777 19.4399 13.7626L19.0857 13.4096C18.088 14.4109 16.605 15.7567 14.6437 17.4374L14.9691 17.8171ZM13.9474 18.6863L14.9684 17.8176L14.6444 17.4368L13.6234 18.3055L13.9474 18.6863ZM12.5243 19.8795L13.946 18.6875L13.6248 18.3043L12.203 19.4964L12.5243 19.8795ZM10.4382 18.3476L12.1998 19.8767L12.5275 19.4991L10.766 17.97L10.4382 18.3476ZM9.17633 17.2392L10.4371 18.3467L10.7671 17.971L9.50631 16.8635L9.17633 17.2392ZM5.06014 13.4676C6.02405 14.4085 7.39809 15.6675 9.17576 17.2387L9.50688 16.864C7.73151 15.2949 6.36459 14.0422 5.4094 13.1098L5.06014 13.4676ZM4.71856 13.1304L5.05912 13.4666L5.41042 13.1108L5.06986 12.7746L4.71856 13.1304ZM4.27364 5.56124C3.36085 6.47404 2.98729 7.88244 3.0754 9.28361C3.16369 10.6876 3.7172 12.129 4.71743 13.1292L5.07098 12.7757C4.17157 11.8763 3.65648 10.5572 3.57442 9.25223C3.49218 7.94444 3.84655 6.69544 4.62719 5.9148L4.27364 5.56124Z" fill="white"/>
</svg>
