<svg width="20" height="20" viewBox="0 0 20 20" fill="none" xmlns="http://www.w3.org/2000/svg">
<path d="M16.782 16.7969H3.21949C3.09449 16.7969 2.98512 16.7344 2.93824 16.625C2.89137 16.5156 2.89137 16.3906 2.96949 16.2969C4.21949 14.6719 4.90699 12.6562 4.90699 10.6094V8.59375C4.90699 5.78125 7.18824 3.5 10.0007 3.5C12.8132 3.5 15.0945 5.78125 15.0945 8.59375V10.6094C15.0945 12.6562 15.782 14.6719 17.032 16.2969C17.1101 16.3906 17.1101 16.5156 17.0632 16.625C17.0007 16.7344 16.907 16.7969 16.782 16.7969ZM3.82887 16.1719H16.1726C15.0632 14.5312 14.4695 12.5781 14.4695 10.6094V8.59375C14.4695 6.125 12.4695 4.125 10.0007 4.125C7.53199 4.125 5.53199 6.125 5.53199 8.59375V10.6094C5.53199 12.5938 4.93824 14.5469 3.82887 16.1719Z" fill="white"/>
<path d="M14.5625 15.3906C14.5 15.3906 14.4531 15.3594 14.4219 15.2969C13.7344 13.8281 13.375 12.2031 13.375 10.5938V8.59375C13.375 6.73438 11.8594 5.21875 10 5.21875C9.90625 5.21875 9.84375 5.15625 9.84375 5.0625C9.84375 4.96875 9.90625 4.90625 10 4.90625C12.0312 4.90625 13.6875 6.5625 13.6875 8.59375V10.6094C13.6875 12.1719 14.0469 13.75 14.7031 15.1719C14.7344 15.25 14.7031 15.3438 14.625 15.375C14.6094 15.3906 14.5781 15.3906 14.5625 15.3906Z" fill="white"/>
<path d="M10 18.5781C8.84375 18.5781 7.90625 17.6406 7.90625 16.4844C7.90625 16.3125 8.04688 16.1719 8.21875 16.1719H11.7813C11.9531 16.1719 12.0938 16.3125 12.0938 16.4844C12.0938 17.6406 11.1563 18.5781 10 18.5781ZM8.5625 16.7969C8.70313 17.4531 9.29688 17.9531 10 17.9531C10.7031 17.9531 11.2812 17.4531 11.4375 16.7969H8.5625Z" fill="white"/>
<path d="M8.23438 4.46875C8.10938 4.46875 7.98438 4.39062 7.9375 4.25C7.875 4.03125 7.82812 3.8125 7.82812 3.59375C7.82812 2.40625 8.79688 1.42188 10 1.42188C11.1875 1.42188 12.1719 2.39062 12.1719 3.59375C12.1719 3.8125 12.1406 4.04688 12.0625 4.25C12.0156 4.42188 11.8281 4.5 11.6719 4.45312C11.5 4.40625 11.4219 4.21875 11.4688 4.0625C11.5156 3.90625 11.5469 3.75 11.5469 3.59375C11.5469 2.75 10.8594 2.04688 10 2.04688C9.15625 2.04688 8.45312 2.73438 8.45312 3.59375C8.45312 3.75 8.48438 3.90625 8.53125 4.0625C8.57812 4.23438 8.5 4.40625 8.32813 4.45312C8.29688 4.45312 8.26563 4.46875 8.23438 4.46875Z" fill="white"/>
<path d="M3.48438 13C3.40625 13 3.32813 12.9687 3.26562 12.9062C1.65625 11.2969 1.65625 8.6875 3.26562 7.09375C3.39063 6.96875 3.57813 6.96875 3.70313 7.09375C3.82813 7.21875 3.82813 7.40625 3.70313 7.53125C2.34375 8.89062 2.34375 11.1094 3.70313 12.4688C3.82813 12.5938 3.82813 12.7812 3.70313 12.9062C3.64063 12.9687 3.5625 13 3.48438 13Z" fill="white"/>
<path d="M2.18873 14.2344C2.1106 14.2344 2.03248 14.2031 1.96998 14.1406C-0.405022 11.7656 -0.561272 8.04688 1.62623 5.84375C1.75123 5.71875 1.93873 5.71875 2.06373 5.84375C2.18873 5.96875 2.18873 6.15625 2.06373 6.28125C0.126228 8.23437 0.282478 11.5625 2.4231 13.7031C2.5481 13.8281 2.5481 14.0156 2.4231 14.1406C2.3606 14.2188 2.28248 14.2344 2.18873 14.2344Z" fill="white"/>
<path d="M16.5156 13C16.4375 13 16.3594 12.9687 16.2969 12.9062C16.1719 12.7812 16.1719 12.5938 16.2969 12.4688C17.6562 11.1094 17.6562 8.89062 16.2969 7.53125C16.1719 7.40625 16.1719 7.21875 16.2969 7.09375C16.4219 6.96875 16.6094 6.96875 16.7344 7.09375C18.3437 8.70312 18.3437 11.3125 16.7344 12.9062C16.6719 12.9687 16.5937 13 16.5156 13Z" fill="white"/>
<path d="M17.7969 14.2344C17.7188 14.2344 17.6406 14.2031 17.5781 14.1406C17.4531 14.0156 17.4531 13.8281 17.5781 13.7031C18.625 12.6562 19.2188 11.3125 19.2813 9.90625C19.3438 8.51562 18.8594 7.21875 17.9219 6.28125C17.7969 6.15625 17.7969 5.96875 17.9219 5.84375C18.0469 5.71875 18.2344 5.71875 18.3594 5.84375C19.4219 6.90625 19.9688 8.35937 19.9063 9.9375C19.8438 11.5 19.1719 13 18.0156 14.1406C17.9688 14.2188 17.875 14.2344 17.7969 14.2344Z" fill="white"/>
</svg>
