<svg width="12" height="24" viewBox="0 0 12 24" fill="none" xmlns="http://www.w3.org/2000/svg">
<g clip-path="url(#clip0_1_1682)">
<path fill-rule="evenodd" clip-rule="evenodd" d="M5.07788 7.48651L4.93612 7.11014C4.87687 6.95414 4.82812 6.82905 4.77787 6.70687C4.707 6.53341 4.63725 6.37523 4.56413 6.22432C4.37938 5.84802 4.17293 5.48211 3.94575 5.12832C3.61672 4.61254 3.25816 4.11504 2.87175 3.63814C2.52038 3.2156 1.83225 3.30178 1.6035 3.79705L1.53375 3.94978C1.27799 4.52015 1.0384 5.09722 0.81525 5.68032C0.70275 5.97669 0.598125 6.26469 0.504375 6.54141C0.18225 7.49341 0 8.2596 0 8.82541C0 9.74251 0.219375 10.6305 0.63525 11.4331C0.726483 11.6021 0.882549 11.7296 1.06981 11.788C1.25707 11.8465 1.46053 11.8313 1.63634 11.7457C1.81215 11.6601 1.94622 11.5109 2.00966 11.3303C2.07311 11.1497 2.06084 10.9522 1.9755 10.7803C1.66166 10.1738 1.49881 9.50437 1.5 8.82578C1.5 8.45705 1.65412 7.80869 1.92975 6.99487C2.01712 6.73669 2.11538 6.46541 2.22225 6.18541C2.3865 5.75523 2.469 5.58687 2.469 5.58687C2.53688 5.68723 2.604 5.78905 2.66887 5.8916C2.87888 6.22178 3.06075 6.54178 3.20662 6.84251C3.2655 6.96469 3.32325 7.09596 3.384 7.2436C3.42863 7.35269 3.47288 7.46651 3.52838 7.61232L3.67087 7.99051C4.23263 9.46578 4.76888 10.1189 6 10.1189C6.19891 10.1189 6.38968 10.0422 6.53033 9.90586C6.67098 9.76947 6.75 9.58448 6.75 9.3916C6.75 9.19871 6.67098 9.01373 6.53033 8.87734C6.38968 8.74095 6.19891 8.66432 6 8.66432C5.62875 8.66432 5.43825 8.43232 5.07788 7.48651ZM12 8.82578C12 7.26214 11.3602 5.79523 10.2428 4.7116C10.152 4.62396 9.76838 3.92796 9.30562 2.98432C8.89484 2.14142 8.49767 1.29235 8.11425 0.437414C7.875 -0.0967676 7.11675 -0.154949 6.7935 0.337051C6.69274 0.493369 6.59621 0.652211 6.504 0.813414C6.28023 1.20042 6.07367 1.59654 5.88487 2.00069C5.51737 2.78796 5.23987 3.56432 5.08725 4.30614C4.92263 5.10796 4.911 5.84178 5.08988 6.49378C5.11377 6.58754 5.15669 6.67576 5.21613 6.75326C5.27557 6.83077 5.35033 6.89602 5.43606 6.9452C5.52178 6.99439 5.61675 7.02652 5.71542 7.03973C5.81409 7.05293 5.91449 7.04695 6.01075 7.02212C6.10701 6.99729 6.1972 6.95412 6.27607 6.89513C6.35494 6.83613 6.42089 6.76249 6.47009 6.67851C6.51929 6.59452 6.55075 6.50188 6.56262 6.40598C6.57449 6.31008 6.56655 6.21285 6.53925 6.11996C6.42675 5.70905 6.435 5.19123 6.55838 4.59014C6.68587 3.97051 6.92775 3.29414 7.25138 2.60032L7.36762 2.38832C7.55867 2.7969 7.75318 3.20394 7.95112 3.60941C8.529 4.78832 8.90738 5.47414 9.18188 5.74032C9.60056 6.145 9.93256 6.62597 10.1588 7.15557C10.385 7.68516 10.501 8.25291 10.5 8.82614C10.5 9.50614 10.3403 10.1618 10.0369 10.7571C9.95022 10.9298 9.93757 11.1288 10.0017 11.3105C10.0658 11.4923 10.2015 11.6421 10.3791 11.7272C10.5567 11.8123 10.7618 11.8258 10.9496 11.7648C11.1375 11.7037 11.2928 11.5731 11.3816 11.4014C11.7897 10.6004 12.0013 9.71918 12 8.82578ZM8.05125 14.7516L6.60075 22.0643C6.55162 22.3134 6.261 22.5454 6 22.5454C5.73938 22.5454 5.44837 22.312 5.39925 22.0647L3.7365 13.6807C3.71789 13.5869 3.6804 13.4976 3.62619 13.4178C3.57198 13.3381 3.5021 13.2695 3.42055 13.2159C3.339 13.1624 3.24737 13.1249 3.15089 13.1057C3.05441 13.0865 2.95497 13.0859 2.85825 13.104C2.76153 13.122 2.66943 13.1584 2.58719 13.2109C2.50496 13.2635 2.43421 13.3313 2.37898 13.4103C2.32376 13.4894 2.28513 13.5783 2.26532 13.6718C2.2455 13.7654 2.24488 13.8618 2.2635 13.9556L3.92625 22.3392C4.11112 23.2712 5.01975 24 6 24C6.97988 24 7.88888 23.2727 8.07375 22.3392L9.52425 15.0265L9.7365 13.9556C9.75512 13.8618 9.7545 13.7654 9.73468 13.6718C9.71487 13.5783 9.67624 13.4894 9.62102 13.4103C9.56579 13.3313 9.49504 13.2635 9.41281 13.2109C9.33057 13.1584 9.23847 13.122 9.14175 13.104C9.04503 13.0859 8.94559 13.0865 8.84911 13.1057C8.75263 13.1249 8.661 13.1624 8.57945 13.2159C8.4979 13.2695 8.42802 13.3381 8.37381 13.4178C8.3196 13.4976 8.28211 13.5869 8.2635 13.6807L8.05125 14.7516Z" fill="#ACACAC"/>
<path fill-rule="evenodd" clip-rule="evenodd" d="M8.25 15.6364C8.44891 15.6364 8.63968 15.5597 8.78033 15.4234C8.92098 15.287 9 15.102 9 14.9091C9 14.7162 8.92098 14.5312 8.78033 14.3948C8.63968 14.2584 8.44891 14.1818 8.25 14.1818H3.75C3.55109 14.1818 3.36032 14.2584 3.21967 14.3948C3.07902 14.5312 3 14.7162 3 14.9091C3 15.102 3.07902 15.287 3.21967 15.4234C3.36032 15.5597 3.55109 15.6364 3.75 15.6364H8.25ZM7.875 17.8182C8.07391 17.8182 8.26468 17.7416 8.40533 17.6052C8.54598 17.4688 8.625 17.2838 8.625 17.0909C8.625 16.898 8.54598 16.713 8.40533 16.5767C8.26468 16.4403 8.07391 16.3636 7.875 16.3636H4.125C3.92609 16.3636 3.73532 16.4403 3.59467 16.5767C3.45402 16.713 3.375 16.898 3.375 17.0909C3.375 17.2838 3.45402 17.4688 3.59467 17.6052C3.73532 17.7416 3.92609 17.8182 4.125 17.8182H7.875Z" fill="#ACACAC"/>
</g>
<defs>
<clipPath id="clip0_1_1682">
<rect width="12" height="24" fill="white"/>
</clipPath>
</defs>
</svg>
