<svg width="18" height="18" viewBox="0 0 18 18" fill="none" xmlns="http://www.w3.org/2000/svg">
<path d="M1.71261 0L3.01524 3.3C3.12576 3.58 3.28366 3.8 3.48892 3.96C3.69418 4.12 3.91524 4.2 4.15208 4.2C4.62576 4.2 4.98892 3.945 5.24155 3.435C5.49418 2.925 5.50997 2.4 5.28892 1.86L4.55471 0H6.44945L7.75208 3.3C7.86261 3.58 8.0205 3.8 8.22576 3.96C8.43103 4.12 8.65208 4.2 8.88892 4.2C9.36261 4.2 9.72576 3.945 9.97839 3.435C10.231 2.925 10.2468 2.4 10.0258 1.86L9.29155 0H11.1863L12.4889 3.3C12.5994 3.58 12.7573 3.8 12.9626 3.96C13.1679 4.12 13.3889 4.2 13.6258 4.2C14.0994 4.2 14.4626 3.945 14.7152 3.435C14.9679 2.925 14.9837 2.4 14.7626 1.86L14.0284 0H16.2874C16.766 0 17.1711 0.21 17.5026 0.63C17.8342 1.05 18 1.5631 18 2.1693V15.8307C18 16.4369 17.8342 16.95 17.5026 17.37C17.1711 17.79 16.766 18 16.2874 18H1.71261C1.23403 18 0.828947 17.79 0.497368 17.37C0.165789 16.95 0 16.4369 0 15.8307V2.1693C0 1.5631 0.165789 1.05 0.497368 0.63C0.828947 0.21 1.23403 0 1.71261 0ZM1.42105 6V15.8307C1.42105 15.9385 1.44837 16.027 1.503 16.0962C1.55763 16.1654 1.6275 16.2 1.71261 16.2H16.2874C16.3725 16.2 16.4424 16.1654 16.497 16.0962C16.5516 16.027 16.5789 15.9385 16.5789 15.8307V6H1.42105Z" fill="#ACACAC"/>
<path d="M8.52405 12.5784L10.2434 11.4739C10.3279 11.4203 10.3701 11.3458 10.3701 11.2504C10.3701 11.155 10.3279 11.0802 10.2434 11.0261L8.52405 9.92161C8.43549 9.86089 8.34464 9.85602 8.25148 9.90701C8.15839 9.95799 8.11184 10.0375 8.11184 10.1455V12.3545C8.11184 12.4625 8.15839 12.542 8.25148 12.593C8.34464 12.644 8.43549 12.6391 8.52405 12.5784ZM9.00069 15C8.48201 15 7.99447 14.9016 7.53809 14.7047C7.08171 14.5079 6.68474 14.2408 6.34717 13.9033C6.0096 13.5659 5.74234 13.1691 5.54536 12.7129C5.34845 12.2567 5.25 11.7693 5.25 11.2507C5.25 10.732 5.34842 10.2445 5.54526 9.78809C5.74211 9.33171 6.00924 8.93474 6.34668 8.59717C6.68411 8.25961 7.08092 7.99234 7.53711 7.79536C7.99329 7.59845 8.48069 7.5 8.99931 7.5C9.51799 7.5 10.0055 7.59842 10.4619 7.79526C10.9183 7.99211 11.3153 8.25924 11.6528 8.59668C11.9904 8.93411 12.2577 9.33092 12.4546 9.78711C12.6515 10.2433 12.75 10.7307 12.75 11.2493C12.75 11.768 12.6516 12.2555 12.4547 12.7119C12.2579 13.1683 11.9908 13.5653 11.6533 13.9028C11.3159 14.2404 10.9191 14.5077 10.4629 14.7046C10.0067 14.9015 9.51931 15 9.00069 15ZM9 14.4079C9.88158 14.4079 10.6283 14.102 11.2401 13.4901C11.852 12.8783 12.1579 12.1316 12.1579 11.25C12.1579 10.3684 11.852 9.62171 11.2401 9.00987C10.6283 8.39803 9.88158 8.0921 9 8.0921C8.11842 8.0921 7.37171 8.39803 6.75987 9.00987C6.14803 9.62171 5.8421 10.3684 5.8421 11.25C5.8421 12.1316 6.14803 12.8783 6.75987 13.4901C7.37171 14.102 8.11842 14.4079 9 14.4079Z" fill="#ACACAC"/>
</svg>
